<svg xmlns="http://www.w3.org/2000/svg" width="54" height="55" viewBox="0 0 54 55"><g><g><path fill="#fff" d="M.493 27.5C.493 12.826 12.431.933 27.157.933c14.727 0 26.665 11.893 26.665 26.565S41.884 54.065 27.157 54.065C12.431 54.065.493 42.17.493 27.499z"/></g><g><path fill="#2b2b2b" d="M29.14 36.973l.15-8.645 2.616.049.45-3.363-3.008-.056.037-2.151c.017-.976.272-1.636 1.535-1.613l1.608.03.053-3.015a19.657 19.657 0 0 0-2.342-.176c-2.32-.042-3.935 1.499-3.985 4.382L26.21 24.9l-2.624-.048-.059 3.37 2.624.048-.15 8.645z"/></g></g></svg>