<svg xmlns="http://www.w3.org/2000/svg" width="54" height="55" viewBox="0 0 54 55"><g><g><path fill="#fff" d="M.083 27.5C.083 12.826 12.02.933 26.747.933s26.664 11.893 26.664 26.565-11.938 26.566-26.664 26.566S.083 42.17.083 27.499z"/></g><g><path fill="#2b2b2b" d="M30.006 27.556c-.039 1.983-1.754 3.568-3.824 3.534-2.07-.035-3.723-1.676-3.685-3.66.039-1.982 1.754-3.568 3.824-3.533 2.07.034 3.723 1.676 3.685 3.659zm6.128-3.836l-.152 7.873c-.058 3.01-2.661 5.415-5.803 5.363l-8.219-.137c-3.141-.052-5.65-2.542-5.592-5.552l.153-7.873c.058-3.01 2.66-5.416 5.802-5.363l8.22.136c3.14.052 5.649 2.543 5.591 5.553zm-4.597 3.861c.054-2.792-2.272-5.104-5.188-5.152-2.915-.048-5.33 2.184-5.384 4.976-.054 2.793 2.274 5.104 5.188 5.152 2.916.05 5.33-2.183 5.384-4.976zm1.834-5.609c.013-.702-.57-1.281-1.303-1.294-.733-.011-1.338.548-1.351 1.25-.014.702.57 1.282 1.302 1.293.733.013 1.338-.547 1.352-1.249z"/></g></g></svg>