<svg xmlns="http://www.w3.org/2000/svg" width="54" height="55" viewBox="0 0 54 55"><g><g><path fill="#fff" d="M.663 27.5C.663 12.826 12.601.933 27.328.933c14.726 0 26.664 11.893 26.664 26.565S42.054 54.065 27.327 54.065C12.601 54.065.663 42.17.663 27.499z"/></g><g><path fill="#2b2b2b" d="M40.822 27.425s.025 3.596-.42 5.334a2.78 2.78 0 0 1-1.94 1.969c-1.733.47-8.675.526-8.675.526s-6.924.056-8.68-.404a2.774 2.774 0 0 1-1.97-1.937c-.468-1.712-.493-5.326-.493-5.326s-.025-3.596.42-5.334a2.838 2.838 0 0 1 1.94-1.987c1.733-.47 8.675-.526 8.675-.526s6.942-.057 8.68.404c.953.247 1.707.99 1.97 1.937.486 1.73.493 5.344.493 5.344zm-7.526.043l-5.797-3.275.047 6.644z"/></g></g></svg>